<svg width="200" height="300" viewBox="0 0 200 300" fill="none" xmlns="http://www.w3.org/2000/svg">
<path d="M0 10C0 4.47716 4.47715 0 10 0H20V300H10C4.47715 300 0 295.523 0 290V10Z" fill="#B944E7"/>
<path d="M180 0H190C195.523 0 200 4.47715 200 10V290C200 295.523 195.523 300 190 300H180V0Z" fill="#B944E7"/>
<path d="M180 11V11C184.971 11 189 15.0294 189 20V286C189 290.971 184.971 295 180 295V295V11Z" fill="#721FCC"/>
<path d="M20 295V295C15.0294 295 11 290.971 11 286V20C11 15.0294 15.0294 11 20 11V11V295Z" fill="#721FCC"/>
<rect x="20" y="200" width="160" height="100" fill="#B944E7"/>
<rect x="20" width="160" height="20" fill="#B944E7"/>
<path d="M11 20V20C11 15.0294 15.0294 11 20 11L180 11C184.971 11 189 15.0294 189 20V20L11 20Z" fill="#721FCC"/>
<path d="M189 286V286C189 290.971 184.971 295 180 295L20 295C15.0294 295 11 290.971 11 286V286L189 286Z" fill="#721FCC"/>
<path d="M184.5 200C186.985 200 189 202.015 189 204.5V204.5C189 206.985 186.985 209 184.5 209L15.5 209C13.0147 209 11 206.985 11 204.5V204.5C11 202.015 13.0147 200 15.5 200L184.5 200Z" fill="#4F0EBF"/>
</svg>
